<?xml version="1.0" standalone="no"?>
<!DOCTYPE svg PUBLIC "-//W3C//DTD SVG 20010904//EN"
 "http://www.w3.org/TR/2001/REC-SVG-20010904/DTD/svg10.dtd">
<svg version="1.0" xmlns="http://www.w3.org/2000/svg"
 width="512.000000pt" height="512.000000pt" viewBox="0 0 512.000000 512.000000"
 preserveAspectRatio="xMidYMid meet">

<g transform="translate(0.000000,512.000000) scale(0.100000,-0.100000)"
fill="#000000" stroke="none">
<path d="M676 5104 c-136 -33 -253 -125 -285 -226 -7 -20 -21 -90 -31 -155
-11 -65 -28 -172 -39 -238 -11 -66 -30 -176 -41 -245 -11 -69 -30 -179 -41
-245 -11 -66 -29 -174 -40 -240 -11 -66 -29 -174 -40 -240 -11 -66 -28 -172
-39 -235 -41 -248 -62 -370 -81 -490 -11 -68 -24 -143 -29 -165 -31 -134 35
-257 179 -329 111 -57 91 -56 1167 -56 l991 0 -314 -943 c-218 -653 -316 -960
-320 -1002 -4 -53 -1 -67 24 -115 57 -109 173 -169 338 -178 121 -5 192 8 283
53 70 36 98 62 282 265 52 58 97 107 100 110 3 3 72 79 155 170 82 91 176 194
210 230 87 95 142 155 310 340 82 91 176 194 210 230 87 95 142 155 310 340
82 91 176 194 210 230 79 86 139 152 255 280 105 116 150 166 260 285 106 115
153 167 260 285 52 57 106 116 119 130 42 45 81 140 81 197 0 165 -149 314
-358 358 -55 12 -233 15 -1024 15 -527 0 -958 3 -958 6 0 3 141 286 312 628
l312 621 1 76 c0 68 -3 80 -30 119 -37 53 -89 92 -164 122 l-56 23 -1210 2
c-1019 1 -1219 -1 -1269 -13z"/>
</g>
</svg>
