<?xml version="1.0" encoding="UTF-8"?>
<!DOCTYPE svg PUBLIC "-//W3C//DTD SVG 1.1//EN" "http://www.w3.org/Graphics/SVG/1.1/DTD/svg11.dtd">
<svg xmlns="http://www.w3.org/2000/svg" version="1.1" width="512px" height="512px" style="shape-rendering:geometricPrecision; text-rendering:geometricPrecision; image-rendering:optimizeQuality; fill-rule:evenodd; clip-rule:evenodd" xmlns:xlink="http://www.w3.org/1999/xlink">
<g><path style="opacity:0.901" fill="#000000" d="M 439.5,335.5 C 435.876,335.78 434.209,337.447 434.5,340.5C 430.15,340.878 428.483,343.211 429.5,347.5C 427.473,347.338 425.473,347.505 423.5,348C 424.299,349.749 423.632,351.082 421.5,352C 423.974,354.428 423.474,354.928 420,353.5C 418.745,354.211 417.579,355.044 416.5,356C 417.654,356.914 417.487,357.747 416,358.5C 415.282,357.549 414.449,357.383 413.5,358C 412.134,359.6 411.134,361.433 410.5,363.5C 408.941,364.074 407.441,364.74 406,365.5C 407.101,367.792 406.268,369.292 403.5,370C 404.167,370.333 404.833,370.667 405.5,371C 403.527,371.495 401.527,371.662 399.5,371.5C 399.5,373.5 399.5,375.5 399.5,377.5C 396.136,376.789 393.803,377.956 392.5,381C 391.128,381.402 389.795,381.902 388.5,382.5C 388.306,384.07 388.306,385.57 388.5,387C 384.732,387.382 381.732,389.049 379.5,392C 381.665,392.992 381.499,394.158 379,395.5C 377.838,394.813 376.672,394.647 375.5,395C 377.503,399.251 375.836,401.585 370.5,402C 369.663,403.011 369.33,404.178 369.5,405.5C 367.801,405.34 366.134,405.506 364.5,406C 364.301,408.301 363.801,410.467 363,412.5C 360.515,411.396 358.349,411.896 356.5,414C 357.167,415.333 357.833,416.667 358.5,418C 356.423,418.192 354.423,418.692 352.5,419.5C 351.169,420.592 350.336,421.926 350,423.5C 348.951,422.483 347.784,422.316 346.5,423C 348.932,424.087 348.598,424.587 345.5,424.5C 345.657,425.873 345.49,427.207 345,428.5C 343.127,427.911 341.46,428.578 340,430.5C 340,431.833 340,433.167 340,434.5C 337.72,435.086 335.553,435.92 333.5,437C 333.306,438.43 333.306,439.93 333.5,441.5C 331.994,442.747 330.494,442.747 329,441.5C 327.545,444.413 325.212,446.413 322,447.5C 322.755,451.415 320.922,453.081 316.5,452.5C 316.822,454.722 316.155,456.556 314.5,458C 315.167,458.333 315.833,458.667 316.5,459C 314.765,459.651 313.098,459.485 311.5,458.5C 310.5,459.5 309.5,460.5 308.5,461.5C 310.385,462.197 310.718,463.197 309.5,464.5C 307.138,465.271 304.804,466.105 302.5,467C 303.308,467.308 303.975,467.808 304.5,468.5C 301.169,468.86 298.503,470.36 296.5,473C 298.962,474.85 298.462,476.017 295,476.5C 294.667,476.167 294.333,475.833 294,475.5C 292.833,476.667 291.667,477.833 290.5,479C 291.731,480.183 291.731,481.349 290.5,482.5C 289.28,483.711 288.113,483.711 287,482.5C 285.961,483.244 285.461,484.244 285.5,485.5C 284.5,485.833 283.833,486.5 283.5,487.5C 281.484,488.486 280.151,490.153 279.5,492.5C 277.929,493.309 276.262,493.643 274.5,493.5C 275.053,498.618 272.719,501.284 267.5,501.5C 268.55,503.102 267.883,503.935 265.5,504C 266.308,504.308 266.975,504.808 267.5,505.5C 265.994,506.747 264.494,506.747 263,505.5C 262.283,506.044 261.783,506.711 261.5,507.5C 260.167,507.833 260.167,508.167 261.5,508.5C 262.552,510.655 261.886,510.988 259.5,509.5C 258.478,509.855 257.811,510.522 257.5,511.5C 255.167,511.5 252.833,511.5 250.5,511.5C 250.5,509.833 250.5,508.167 250.5,506.5C 248.143,506.663 245.81,506.497 243.5,506C 245.469,501.953 244.136,499.953 239.5,500C 238.348,496.571 236.014,494.238 232.5,493C 232.833,492.667 233.167,492.333 233.5,492C 231.396,489.762 229.062,488.762 226.5,489C 227.138,487.293 227.138,485.46 226.5,483.5C 224.5,483.5 222.5,483.5 220.5,483.5C 221.86,478.25 219.86,475.583 214.5,475.5C 214.709,474.914 215.043,474.414 215.5,474C 213.19,473.503 210.857,473.337 208.5,473.5C 210.978,467.634 208.978,465.3 202.5,466.5C 203.885,461.187 201.885,458.687 196.5,459C 196.969,457.038 196.303,455.205 194.5,453.5C 193.5,452.167 192.5,452.167 191.5,453.5C 190.289,452.726 190.289,451.893 191.5,451C 190.531,449.242 189.364,448.742 188,449.5C 187.29,448.027 186.124,447.36 184.5,447.5C 184.908,444.401 183.741,442.067 181,440.5C 180.043,442.709 178.876,442.543 177.5,440C 179.569,439.676 179.902,438.842 178.5,437.5C 176.5,436.833 174.5,436.167 172.5,435.5C 173.46,434.188 173.294,432.854 172,431.5C 170.174,429.926 168.007,429.093 165.5,429C 166.731,427.817 166.731,426.651 165.5,425.5C 163.898,426.55 163.065,425.883 163,423.5C 162.692,424.308 162.192,424.975 161.5,425.5C 160.534,423.604 160.201,421.604 160.5,419.5C 158.5,419.5 156.5,419.5 154.5,419.5C 154.286,417.856 154.62,416.356 155.5,415C 152.798,413.66 150.131,412.327 147.5,411C 148.167,410.667 148.833,410.333 149.5,410C 147.697,409.363 146.364,408.197 145.5,406.5C 142.82,409.443 142.153,409.11 143.5,405.5C 142.975,404.808 142.308,404.308 141.5,404C 141.833,403.667 142.167,403.333 142.5,403C 140.527,402.505 138.527,402.338 136.5,402.5C 136.662,400.473 136.495,398.473 136,396.5C 135.329,395.748 134.496,395.414 133.5,395.5C 133.167,394.167 132.833,394.167 132.5,395.5C 131.078,395.25 130.078,394.417 129.5,393C 130.833,392 130.833,391 129.5,390C 127.5,389.667 125.5,389.333 123.5,389C 124.711,388.107 124.711,387.274 123.5,386.5C 121.556,385.811 119.556,385.311 117.5,385C 118.406,383.301 118.739,381.467 118.5,379.5C 116.408,379.439 114.908,378.439 114,376.5C 113.282,377.451 112.449,377.617 111.5,377C 112.972,373.448 111.638,371.782 107.5,372C 106.308,370.088 105.308,368.088 104.5,366C 103.207,365.51 101.873,365.343 100.5,365.5C 100.5,364.5 100.5,363.5 100.5,362.5C 98.396,362.799 96.396,362.466 94.5,361.5C 95.3923,357.054 93.3923,355.054 88.5,355.5C 89.0915,350.434 86.7582,347.934 81.5,348C 81.6651,346.883 81.9984,345.716 82.5,344.5C 80.3657,342.402 78.0324,341.569 75.5,342C 76.2135,340.657 75.8802,339.324 74.5,338C 73.2506,337.26 72.2506,337.427 71.5,338.5C 70.7109,338.217 70.0442,337.717 69.5,337C 70.8333,336 70.8333,335 69.5,334C 71.9486,330.911 74.2819,330.911 76.5,334C 101.166,334.096 125.833,333.763 150.5,333C 143.024,317.74 137.024,301.906 132.5,285.5C 127.112,283.283 124.278,279.283 124,273.5C 121.304,272.328 119.637,270.328 119,267.5C 117.89,265.963 116.39,265.297 114.5,265.5C 114.66,263.801 114.494,262.134 114,260.5C 111.175,256.315 108.175,252.315 105,248.5C 104.383,247.551 104.549,246.718 105.5,246C 103.963,244.89 103.297,243.39 103.5,241.5C 102.5,241.5 101.5,241.5 100.5,241.5C 100.658,238.455 99.9915,235.621 98.5,233C 99.0886,230.14 98.5886,227.307 97,224.5C 94.6091,225.602 94.1091,224.936 95.5,222.5C 95.2408,217.161 93.5742,212.327 90.5,208C 90.6667,207.5 90.8333,207 91,206.5C 92.0495,207.517 93.2161,207.684 94.5,207C 112.394,197.705 119.561,182.872 116,162.5C 111.735,149.602 103.235,140.935 90.5,136.5C 89.9852,132.204 91.1518,128.537 94,125.5C 94.3108,123.444 94.8108,121.444 95.5,119.5C 95.2907,118.914 94.9574,118.414 94.5,118C 98.878,112.672 100.878,106.505 100.5,99.5C 104.319,99.5285 105.319,97.8618 103.5,94.5C 103.529,92.9707 104.196,91.804 105.5,91C 104.833,90.6667 104.167,90.3333 103.5,90C 105.433,89.7489 107.266,89.2489 109,88.5C 109.341,85.8132 110.674,83.8132 113,82.5C 113.822,80.2115 114.489,77.8782 115,75.5C 116.11,73.9632 117.61,73.2965 119.5,73.5C 119.626,70.5322 121.126,68.5322 124,67.5C 124.406,64.0847 126.072,61.418 129,59.5C 129.494,57.8659 129.66,56.1992 129.5,54.5C 131.199,54.6602 132.866,54.4935 134.5,54C 135.764,51.191 137.764,49.0243 140.5,47.5C 140.291,46.914 139.957,46.414 139.5,46C 140.833,45.6667 142.167,45.3333 143.5,45C 149.323,41.0044 154.656,36.5044 159.5,31.5C 159.291,30.914 158.957,30.414 158.5,30C 161.692,29.8029 164.692,28.9696 167.5,27.5C 168.386,26.675 168.719,25.675 168.5,24.5C 170.288,24.7852 171.955,24.4519 173.5,23.5C 173.968,21.8662 174.968,20.6995 176.5,20C 178.81,19.5034 181.143,19.3367 183.5,19.5C 183.36,17.8762 184.027,16.7096 185.5,16C 192.836,15.1337 199.503,12.6337 205.5,8.5C 208.62,9.68263 211.287,9.01597 213.5,6.5C 227.328,5.14139 241.161,3.80806 255,2.5C 267.756,3.4771 280.423,4.81043 293,6.5C 295.862,5.17062 298.028,6.00396 299.5,9C 301.441,9.74289 303.274,9.57622 305,8.5C 310.464,12.4736 316.631,14.6403 323.5,15C 326.87,18.9115 331.203,20.7448 336.5,20.5C 336.33,21.8221 336.663,22.9887 337.5,24C 341.737,26.4151 346.071,28.5818 350.5,30.5C 354.61,35.9725 359.944,39.3058 366.5,40.5C 366.238,41.9778 366.571,43.3112 367.5,44.5C 368.086,44.2907 368.586,43.9574 369,43.5C 371.29,47.4717 374.124,50.9717 377.5,54C 378.448,54.4828 379.448,54.6495 380.5,54.5C 380.5,56.1667 380.5,57.8333 380.5,59.5C 384.751,57.8984 386.584,59.565 386,64.5C 387.29,66.792 388.957,68.792 391,70.5C 391.483,71.448 391.649,72.448 391.5,73.5C 394.57,74.2429 396.236,76.2429 396.5,79.5C 400.554,80.119 401.887,82.2857 400.5,86C 401.211,87.2547 402.044,88.4214 403,89.5C 403.414,89.0426 403.914,88.7093 404.5,88.5C 405.23,90.3413 405.897,92.1746 406.5,94C 406.043,94.414 405.709,94.914 405.5,95.5C 407.167,97.6667 408.833,99.8333 410.5,102C 410.167,102.333 409.833,102.667 409.5,103C 410.831,107.502 412.831,111.669 415.5,115.5C 414.833,115.833 414.167,116.167 413.5,116.5C 415.65,120.771 417.65,125.104 419.5,129.5C 418.167,131.5 418.167,133.5 419.5,135.5C 391.761,151.371 386.761,172.704 404.5,199.5C 407.458,200.961 409.958,202.961 412,205.5C 412.333,205.167 412.667,204.833 413,204.5C 414.734,206.451 416.901,207.451 419.5,207.5C 417.838,212.807 416.172,218.14 414.5,223.5C 414.727,225.671 415.06,227.838 415.5,230C 414.109,231.02 412.609,231.853 411,232.5C 410.502,235.482 410.335,238.482 410.5,241.5C 408.61,241.297 407.11,241.963 406,243.5C 405.667,245.5 405.333,247.5 405,249.5C 403.167,250.667 401.667,252.167 400.5,254C 400.833,254.333 401.167,254.667 401.5,255C 400.74,256.441 400.074,257.941 399.5,259.5C 398.675,260.386 397.675,260.719 396.5,260.5C 396.5,262.167 396.5,263.833 396.5,265.5C 395.07,265.421 393.736,265.754 392.5,266.5C 391.516,270.647 389.349,273.98 386,276.5C 386.209,280.459 384.375,282.126 380.5,281.5C 380.66,283.199 380.494,284.866 380,286.5C 378.658,285.098 377.824,285.431 377.5,287.5C 373.507,303.314 367.841,318.48 360.5,333C 387.671,333.199 414.004,332.365 439.5,330.5C 440.167,330.833 440.833,331.167 441.5,331.5C 440.619,332.971 439.286,333.804 437.5,334C 438.416,334.278 439.082,334.778 439.5,335.5 Z M 192.5,69.5 C 234.521,70.4993 276.521,70.8326 318.5,70.5C 341.456,113.115 350.623,158.448 346,206.5C 343.446,216.998 339.612,226.998 334.5,236.5C 336.765,237.647 339.098,237.814 341.5,237C 355.282,234.138 368.949,230.804 382.5,227C 392.01,223.911 401.01,219.744 409.5,214.5C 409.833,214.833 410.167,215.167 410.5,215.5C 409.846,217.115 409.346,218.782 409,220.5C 407.795,221.071 406.628,221.738 405.5,222.5C 406.025,223.192 406.692,223.692 407.5,224C 405.651,227.161 404.484,230.661 404,234.5C 403.333,235.833 402.333,236.833 401,237.5C 399.899,242.664 398.066,247.331 395.5,251.5C 391.926,250.908 389.926,252.408 389.5,256C 390.818,259.537 389.485,261.371 385.5,261.5C 385.5,262.833 385.5,264.167 385.5,265.5C 380.879,265.215 379.379,267.215 381,271.5C 373.94,279.138 366.773,286.638 359.5,294C 357.017,294.287 354.35,294.954 351.5,296C 350.773,297.399 350.273,298.899 350,300.5C 348.095,301.158 346.595,302.325 345.5,304C 343.167,304.333 340.833,304.667 338.5,305C 337.87,306.892 336.87,308.559 335.5,310C 332.813,310.341 330.813,311.674 329.5,314C 326.576,314.988 323.576,315.654 320.5,316C 321.696,316.654 321.696,317.154 320.5,317.5C 313.024,287.288 305.358,257.122 297.5,227C 319.513,209.098 328.347,185.931 324,157.5C 316.388,128.221 297.888,110.055 268.5,103C 235.755,98.7784 210.922,110.612 194,138.5C 181.397,166.785 184.397,193.119 203,217.5C 206.175,221.008 209.675,224.175 213.5,227C 205.343,256.946 198.01,287.113 191.5,317.5C 183.375,315.845 177.042,311.678 172.5,305C 169.854,304.503 167.187,304.336 164.5,304.5C 165.037,300.019 163.37,298.686 159.5,300.5C 159.819,298.25 159.319,296.25 158,294.5C 156.612,295.554 155.112,295.72 153.5,295C 154.38,293.644 154.714,292.144 154.5,290.5C 151.193,290.937 148.193,290.27 145.5,288.5C 142.137,285.261 138.97,281.927 136,278.5C 135.15,276.99 134.317,275.49 133.5,274C 133.645,273.228 133.978,272.561 134.5,272C 130.118,271.997 128.451,269.831 129.5,265.5C 124.536,266.543 122.869,264.876 124.5,260.5C 120.079,259.249 118.412,256.249 119.5,251.5C 117.856,251.714 116.356,251.38 115,250.5C 114.667,247.5 114.333,244.5 114,241.5C 112.413,242.727 111.079,242.394 110,240.5C 109.503,237.854 109.336,235.187 109.5,232.5C 108.178,232.67 107.011,232.337 106,231.5C 104.801,228.274 104.301,224.941 104.5,221.5C 103.5,221.5 102.5,221.5 101.5,221.5C 100.637,219.105 100.637,216.771 101.5,214.5C 109.99,219.744 118.99,223.911 128.5,227C 142.051,230.804 155.718,234.138 169.5,237C 171.902,237.814 174.235,237.647 176.5,236.5C 161.466,206.805 158.299,175.805 167,143.5C 168.704,133.351 171.037,123.351 174,113.5C 179.49,98.5244 185.657,83.8577 192.5,69.5 Z M 247.5,143.5 C 248.833,143.5 250.167,143.5 251.5,143.5C 251.286,145.144 251.62,146.644 252.5,148C 251.241,165.808 249.741,183.641 248,201.5C 230.923,194.97 223.923,182.637 227,164.5C 230.685,154.316 237.519,147.316 247.5,143.5 Z M 259.5,143.5 C 275.261,146.627 283.928,156.294 285.5,172.5C 284.16,186.651 276.993,196.317 264,201.5C 262.784,199.038 262.118,196.371 262,193.5C 260.939,176.841 260.106,160.175 259.5,143.5 Z M 358.5,404.5 C 357.167,404.833 357.167,405.167 358.5,405.5C 358.196,406.15 357.863,406.817 357.5,407.5C 355.376,408.149 353.376,408.983 351.5,410C 352.86,411.938 352.527,413.604 350.5,415C 348.744,415.202 347.078,415.702 345.5,416.5C 345.709,417.086 346.043,417.586 346.5,418C 344.423,418.192 342.423,418.692 340.5,419.5C 341.025,420.192 341.692,420.692 342.5,421C 341.234,423.578 339.234,425.412 336.5,426.5C 334.877,425.509 333.877,426.176 333.5,428.5C 333.709,429.086 334.043,429.586 334.5,430C 332.623,431.185 330.623,432.185 328.5,433C 329.108,435.184 328.441,437.184 326.5,439C 325.216,439.684 324.049,439.517 323,438.5C 321.312,439.325 321.145,440.325 322.5,441.5C 320.604,442.466 318.604,442.799 316.5,442.5C 317.906,447.931 315.906,450.265 310.5,449.5C 311.093,452.596 310.093,454.929 307.5,456.5C 305.41,455.209 304.076,455.876 303.5,458.5C 271.848,460.983 240.181,461.15 208.5,459C 207.167,458.333 207.167,457.667 208.5,457C 206.527,456.505 204.527,456.338 202.5,456.5C 201.667,454.248 201.667,452.081 202.5,450C 198.846,450.075 196.18,448.575 194.5,445.5C 192.133,446.466 191.466,445.8 192.5,443.5C 188.819,443.282 188.152,442.116 190.5,440C 188.423,439.808 186.423,439.308 184.5,438.5C 183.167,437.5 183.167,436.5 184.5,435.5C 183.757,434.818 183.091,434.151 182.5,433.5C 180.319,433.716 178.653,432.883 177.5,431C 178.458,429.853 178.125,428.853 176.5,428C 177.167,427.667 177.833,427.333 178.5,427C 176.167,426.667 173.833,426.333 171.5,426C 172.337,424.989 172.67,423.822 172.5,422.5C 171.178,422.33 170.011,422.663 169,423.5C 167.667,422.167 166.333,420.833 165,419.5C 164.544,418.256 165.044,417.423 166.5,417C 166,416.5 165.5,416 165,415.5C 163.701,415.966 162.201,415.966 160.5,415.5C 160.643,413.738 160.309,412.071 159.5,410.5C 158.726,409.289 157.893,409.289 157,410.5C 154.013,409.724 153.18,408.057 154.5,405.5C 152.009,404.459 152.009,403.626 154.5,403C 152.19,402.503 149.857,402.337 147.5,402.5C 147.5,401.5 147.5,400.5 147.5,399.5C 143.276,399.948 141.609,398.281 142.5,394.5C 140.51,393.127 138.343,392.127 136,391.5C 135.506,389.866 135.34,388.199 135.5,386.5C 133.516,386.617 131.85,385.95 130.5,384.5C 136.904,368.285 142.904,351.952 148.5,335.5C 149.822,335.33 150.989,335.663 152,336.5C 167.462,369.63 190.962,395.463 222.5,414C 233.008,420.254 244.008,425.421 255.5,429.5C 294.078,415.418 324.912,391.418 348,357.5C 351.922,350.658 355.588,343.658 359,336.5C 360.011,335.663 361.178,335.33 362.5,335.5C 368.096,351.952 374.096,368.285 380.5,384.5C 378.955,385.452 377.288,385.785 375.5,385.5C 376.455,389.931 374.455,392.598 369.5,393.5C 369.709,394.086 370.043,394.586 370.5,395C 368.559,395.743 366.726,395.576 365,394.5C 364.5,395 364,395.5 363.5,396C 363.38,397.713 363.547,399.546 364,401.5C 362.667,402.833 361.333,402.833 360,401.5C 357.842,402.05 357.342,403.05 358.5,404.5 Z M 358.5,405.5 C 358.5,405.167 358.5,404.833 358.5,404.5C 359.363,403.537 360.03,403.537 360.5,404.5C 360.043,405.298 359.376,405.631 358.5,405.5 Z"/></g>
<g><path style="opacity:0.004" fill="#000000" d="M 145.5,40.5 C 146.833,41.1667 146.833,41.1667 145.5,40.5 Z"/></g>
<g><path style="opacity:0.004" fill="#000000" d="M 88.5,133.5 C 89.8333,134.167 89.8333,134.167 88.5,133.5 Z"/></g>
<g><path style="opacity:0.004" fill="#000000" d="M 421.5,133.5 C 422.833,134.167 422.833,134.167 421.5,133.5 Z"/></g>
<g><path style="opacity:0.004" fill="#000000" d="M 439.5,335.5 C 440.773,336.077 440.773,336.743 439.5,337.5C 438.537,337.03 438.537,336.363 439.5,335.5 Z"/></g>
<g><path style="opacity:0.004" fill="#000000" d="M 71.5,338.5 C 72.8333,339.167 72.8333,339.167 71.5,338.5 Z"/></g>
<g><path style="opacity:0.004" fill="#000000" d="M 132.5,395.5 C 132.833,395.5 133.167,395.5 133.5,395.5C 133.315,396.17 132.981,396.17 132.5,395.5 Z"/></g>
<g><path style="opacity:0.004" fill="#000000" d="M 144.5,408.5 C 145.833,409.167 145.833,409.167 144.5,408.5 Z"/></g>
<g><path style="opacity:0.004" fill="#000000" d="M 184.5,449.5 C 184.897,448.475 185.563,448.308 186.5,449C 185.906,449.464 185.239,449.631 184.5,449.5 Z"/></g>
<g><path style="opacity:0.004" fill="#000000" d="M 285.5,485.5 C 286.833,486.167 286.833,486.167 285.5,485.5 Z"/></g>
<g><path style="opacity:0.004" fill="#000000" d="M 283.5,487.5 C 284.167,487.5 284.5,487.833 284.5,488.5C 284.167,488.167 283.833,487.833 283.5,487.5 Z"/></g>
<g><path style="opacity:0.004" fill="#000000" d="M 284.5,488.5 C 285.833,489.167 285.833,489.167 284.5,488.5 Z"/></g>
<g><path style="opacity:0.004" fill="#000000" d="M 282.5,489.5 C 283.833,490.167 283.833,490.167 282.5,489.5 Z"/></g>
<g><path style="opacity:0.004" fill="#000000" d="M 261.5,507.5 C 262.833,508.167 262.833,508.167 261.5,507.5 Z"/></g>
</svg>
